HIERARCHY
ROOT Hips
{
	OFFSET 0.00 0.00 0.00
	CHANNELS 6 Xposition Yposition Zposition Xrotation Yrotation Zrotation
	JOINT Spine
	{
		OFFSET 0.00000 7.53995 0.00000
		CHANNELS 3 Xrotation Yrotation Zrotation
		JOINT Head
		{
			OFFSET 0.00000 15.09381 0.00000
			CHANNELS 3 Xrotation Yrotation Zrotation
			End Site
			{
				OFFSET 0.00000 4.52755 0.00000
			}
		}
		JOINT LeftShoulder
		{
			OFFSET 0.00000 9.73893 0.00000
			CHANNELS 3 Xrotation Yrotation Zrotation
			JOINT LeftArm
			{
				OFFSET 7.08401 0.00000 0.00000
				CHANNELS 3 Xrotation Yrotation Zrotation
				JOINT LeftForeArm
				{
					OFFSET 10.25932 0.00000 0.00000
					CHANNELS 3 Yrotation Zrotation Xrotation
					JOINT LeftHand
					{
						OFFSET 9.89698 0.00000 0.00000
						CHANNELS 3 Xrotation Yrotation Zrotation
						JOINT LeftHandThumb1
						{
							OFFSET 0.00000 0.00000 0.00000
							CHANNELS 3 Xrotation Zrotation Yrotation
							End Site
							{
								OFFSET 0.00000 0.00000 3.93700
							}
						}
						End Site
						{
							OFFSET 3.93700 0.00000 0.00000
						}
					}
				}
			}
		}
		JOINT RightShoulder
		{
			OFFSET 0.00000 9.73893 0.00000
			CHANNELS 3 Xrotation Yrotation Zrotation
			JOINT RightArm
			{
				OFFSET -7.08401 0.00000 0.00000
				CHANNELS 3 Xrotation Yrotation Zrotation
				JOINT RightForeArm
				{
					OFFSET -10.25932 0.00000 0.00000
					CHANNELS 3 Yrotation Zrotation Xrotation
					JOINT RightHand
					{
						OFFSET -9.89698 0.00000 0.00000
						CHANNELS 3 Xrotation Yrotation Zrotation
						JOINT RightHandThumb1
						{
							OFFSET 0.00000 0.00000 0.00000
							CHANNELS 3 Xrotation Zrotation Yrotation
							End Site
							{
								OFFSET 0.00000 0.00000 3.93700
							}
						}
						End Site
						{
							OFFSET -3.93700 0.00000 0.00000
						}
					}
				}
			}
		}
	}
	JOINT LeftUpLeg
	{
		OFFSET 3.34548 0.00000 0.00000
		CHANNELS 3 Xrotation Yrotation Zrotation
		JOINT LeftLeg
		{
			OFFSET 0.00000 -19.11473 0.00000
			CHANNELS 3 Xrotation Yrotation Zrotation
			JOINT LeftFoot
			{
				OFFSET 0.00000 -16.04560 0.00000
				CHANNELS 3 Xrotation Yrotation Zrotation
				JOINT LeftToeBase
				{
					OFFSET 0.00000 -1.43467 5.35428
					CHANNELS 3 Xrotation Yrotation Zrotation
					End Site
					{
						OFFSET 0.00000 0.00000 2.95275
					}
				}
			}
		}
	}
	JOINT RightUpLeg
	{
		OFFSET -3.34548 0.00000 0.00000
		CHANNELS 3 Xrotation Yrotation Zrotation
		JOINT RightLeg
		{
			OFFSET 0.00000 -19.11473 0.00000
			CHANNELS 3 Xrotation Yrotation Zrotation
			JOINT RightFoot
			{
				OFFSET 0.00000 -16.04560 0.00000
				CHANNELS 3 Xrotation Yrotation Zrotation
				JOINT RightToeBase
				{
					OFFSET 0.00000 -1.43467 5.35428
					CHANNELS 3 Xrotation Yrotation Zrotation
					End Site
					{
						OFFSET 0.00000 0.00000 2.95275
					}
				}
			}
		}
	}
}
MOTION
Frames: 7
Frame Time: 0.008333
 -1.2154 37.0942 4.3245 8.8290 2.3643 -1.9099 -10.5269 7.5456 0.8598 0.8448 0.6989 2.5362 -16.1410 1.4989 21.1526 -21.6745 5.1500 -15.0874 -3.7796 0.0000 34.0771 4.9391 12.8262 -21.2699 33.1476 -0.0000 26.2537 3.3303 -10.0777 -23.5494 -33.8873 -13.0531 16.9647 10.4041 -0.0000 -173.6773 0.2154 4.7973 -2.5744 32.8623 0.0000 -24.3270 -6.6297 11.0808 7.8279 6.5023 -0.0000 0.0000 -10.3727 15.5372 -20.7381 12.0745 -0.0000 -0.0000 -7.5138 -9.3943 -1.2178 9.2130 -0.0000 -0.0000 -10.4371 -14.8428 15.1198 8.4086 0.0000 0.0000
 -1.2120 37.0944 4.3261 8.8233 2.3662 -1.9139 -10.5558 7.5459 0.8496 0.8467 0.6839 2.5592 -16.1159 1.4943 21.1519 -21.6885 5.1556 -15.0918 -3.7914 0.0000 34.0609 4.9637 12.8302 -21.3608 33.1476 -0.0000 26.2537 3.3332 -10.0682 -23.5452 -33.9056 -13.0636 16.9544 10.3975 -0.0000 -173.6625 0.2143 4.7695 -2.5753 32.8623 0.0000 -24.3270 -6.6266 11.0650 7.8286 6.5152 0.0000 0.0000 -10.3819 15.5453 -20.7380 12.0549 0.0000 -0.0000 -7.5122 -9.3921 -1.2191 9.2226 0.0000 0.0000 -10.4442 -14.8156 15.1196 8.4100 -0.0000 0.0000
 -1.2086 37.0943 4.3286 8.8154 2.3658 -1.9155 -10.5860 7.5445 0.8362 0.8626 0.6533 2.5877 -16.1191 1.4695 21.1611 -21.6377 5.1676 -15.1000 -3.8013 0.0000 34.0205 4.9770 12.8411 -21.3968 33.1476 -0.0000 26.2537 3.3551 -10.0610 -23.5328 -33.9018 -13.0622 16.9477 10.3992 -0.0000 -173.6715 0.2119 4.7594 -2.5528 32.8623 0.0000 -24.3270 -6.6201 11.0588 7.8247 6.5337 -0.0000 -0.0000 -10.4012 15.5526 -20.7163 12.0676 0.0000 0.0000 -7.5083 -9.3826 -1.2219 9.2370 -0.0000 -0.0000 -10.4430 -14.8204 15.1106 8.3694 0.0000 -0.0000
 -1.2053 37.0946 4.3309 8.8081 2.3714 -1.9173 -10.6148 7.5435 0.8218 0.8740 0.6252 2.6177 -16.1033 1.4594 21.1658 -21.6564 5.1712 -15.1099 -3.8080 0.0000 34.0352 4.9954 12.8638 -21.4355 33.1476 -0.0000 26.2537 3.3554 -10.0519 -23.5275 -33.8898 -13.0604 16.9471 10.3842 -0.0000 -173.6489 0.2073 4.7158 -2.5194 32.8623 0.0000 -24.3270 -6.6129 11.0366 7.8281 6.5469 -0.0000 0.0000 -10.3945 15.5449 -20.7716 12.0523 0.0000 0.0000 -7.5030 -9.3510 -1.2245 9.2580 -0.0000 -0.0000 -10.4375 -14.9014 15.0919 8.3801 0.0000 0.0000
 -1.2022 37.0945 4.3336 8.7889 2.3839 -1.9187 -10.6269 7.5354 0.8032 0.8843 0.5813 2.6597 -16.0665 1.4382 21.1647 -21.6811 5.1914 -15.1018 -3.8142 0.0000 34.0229 4.9720 12.8387 -21.3807 33.1476 -0.0000 26.2537 3.3635 -10.0532 -23.5120 -33.8761 -13.0476 16.9457 10.3782 -0.0000 -173.6586 0.2100 4.7425 -2.5380 32.8623 0.0000 -24.3270 -6.5967 11.0205 7.8152 6.5726 -0.0000 -0.0000 -10.4059 15.4841 -20.5500 11.8225 -0.0000 0.0000 -7.4832 -9.3779 -1.2297 9.2613 0.0000 0.0000 -10.4578 -14.8920 15.1415 8.1437 -0.0000 -0.0000
 -1.1984 37.0945 4.3367 8.7696 2.3907 -1.9133 -10.6372 7.5273 0.7818 0.8903 0.5428 2.6945 -16.0682 1.4198 21.1747 -21.6573 5.2053 -15.1119 -3.8191 0.0000 34.0335 4.9804 12.8436 -21.4067 33.1476 -0.0000 26.2537 3.3651 -10.0473 -23.5085 -33.8918 -13.0437 16.9512 10.3579 -0.0000 -173.6137 0.2079 4.7212 -2.5239 32.8623 0.0000 -24.3270 -6.5733 10.9951 7.8111 6.5794 -0.0000 -0.0000 -10.4247 15.5786 -20.7450 12.0428 -0.0000 0.0000 -7.4654 -9.3755 -1.2412 9.2728 0.0000 0.0000 -10.4544 -14.8590 15.1230 8.3728 0.0000 -0.0000
 -1.1948 37.0941 4.3413 8.7223 2.4013 -1.9097 -10.6153 7.5104 0.7600 0.8964 0.5197 2.7368 -16.1928 1.3904 21.1972 -21.5338 5.1644 -15.1517 -3.7626 0.0000 34.1823 4.9586 12.7908 -21.3995 33.1476 -0.0000 26.2537 3.3803 -10.0390 -23.5003 -33.9108 -13.0403 16.9582 10.3450 -0.0000 -173.5741 0.2090 4.7307 -2.5325 32.8623 0.0000 -24.3270 -6.5231 10.9938 7.8055 6.5901 0.0000 -0.0000 -10.4373 15.5680 -20.7592 12.0635 -0.0000 0.0000 -7.4125 -9.3831 -1.2500 9.2795 -0.0000 0.0000 -10.4575 -14.8667 15.1406 8.3776 -0.0000 -0.0000
